<?xml version="1.0" encoding="UTF-8" standalone="no"?><!-- Generator: Gravit.io --><svg xmlns="http://www.w3.org/2000/svg" xmlns:xlink="http://www.w3.org/1999/xlink" style="isolation:isolate" viewBox="0 0 448 512" width="448pt" height="512pt"><defs><clipPath id="_clipPath_rhBc8MpXgTFtmtsnTPqCqAqdONmpFqT1"><rect width="448" height="512"/></clipPath></defs><g clip-path="url(#_clipPath_rhBc8MpXgTFtmtsnTPqCqAqdONmpFqT1)"><path d=" M 400 480 L 48 480 C 21.49 480 0 458.51 0 432 L 0 80 C 0 53.49 21.49 32 48 32 L 400 32 C 426.51 32 448 53.49 448 80 L 448 432 C 448 458.51 426.51 480 400 480 Z  M 195.314 381.941 L 379.314 197.941 C 385.562 191.693 385.562 181.562 379.314 175.314 L 356.687 152.687 C 350.439 146.439 340.308 146.438 334.059 152.687 L 184 302.745 L 113.941 232.686 C 107.693 226.438 97.562 226.438 91.313 232.686 L 68.686 255.313 C 62.438 261.561 62.438 271.692 68.686 277.94 L 172.686 381.94 C 178.935 388.19 189.065 388.19 195.314 381.941 L 195.314 381.941 Z " fill="rgb(0,255,132)"/></g></svg>