<?xml version="1.0" encoding="UTF-8" standalone="no"?><!-- Generator: Gravit.io --><svg xmlns="http://www.w3.org/2000/svg" xmlns:xlink="http://www.w3.org/1999/xlink" style="isolation:isolate" viewBox="0 0 576 512" width="576pt" height="512pt"><defs><clipPath id="_clipPath_5pJtmLtrimSyymwjsbcjCtAWT3fhDUV5"><rect width="576" height="512"/></clipPath></defs><g clip-path="url(#_clipPath_5pJtmLtrimSyymwjsbcjCtAWT3fhDUV5)"><path d=" M 569.517 440.013 C 587.975 472.007 564.806 512 527.94 512 L 48.054 512 C 11.117 512 -11.945 471.945 6.477 440.013 L 246.423 23.985 C 264.89 -8.024 311.143 -7.966 329.577 23.985 L 569.517 440.013 L 569.517 440.013 Z  M 288 354 C 262.595 354 242 374.595 242 400 C 242 425.405 262.595 446 288 446 C 313.405 446 334 425.405 334 400 C 334 374.595 313.405 354 288 354 Z  M 244.327 188.654 L 251.745 324.654 C 252.092 331.018 257.354 336 263.727 336 L 312.273 336 C 318.646 336 323.908 331.018 324.255 324.654 L 331.673 188.654 C 332.048 181.78 326.575 176 319.691 176 L 256.308 176 C 249.424 176 243.952 181.78 244.327 188.654 L 244.327 188.654 Z " fill="rgb(255,153,0)"/></g></svg>